{
  "accessors": [
    {
      "bufferView": 2,
      "componentType": 5126,
      "count": 233,
      "max": [
        2.0954549312591553,
        0.07049000263214111,
        4.056003093719482
      ],
      "min": [
        -0.09380099922418594,
        -0.07049000263214111,
        0.5272160172462463
      ],
      "type": "VEC3"
    },
    {
      "bufferView": 2,
      "byteOffset": 2796,
      "componentType": 5126,
      "count": 233,
      "max": [
        0.9995917677879333,
        0.9998011589050293,
        0.6267750263214111
      ],
      "min": [
        -0.9994810819625854,
        -0.9998003244400024,
        -0.9827196598052979
      ],
      "type": "VEC3"
    },
    {
      "bufferView": 1,
      "componentType": 5126,
      "count": 233,
      "max": [
        1.0,
        1.0
      ],
      "min": [
        0.0,
        0.0
      ],
      "type": "VEC2"
    },
    {
      "bufferView": 0,
      "componentType": 5125,
      "count": 696,
      "type": "SCALAR"
    },
    {
      "bufferView": 2,
      "byteOffset": 5592,
      "componentType": 5126,
      "count": 104,
      "max": [
        1.6370069980621338,
        0.06385000050067902,
        4.130712032318115
      ],
      "min": [
        1.4947329759597778,
        -0.06385000050067902,
        4.029202938079834
      ],
      "type": "VEC3"
    },
    {
      "bufferView": 2,
      "byteOffset": 6840,
      "componentType": 5126,
      "count": 104,
      "max": [
        0.9796661138534546,
        0.9996875524520874,
        0.9844189882278442
      ],
      "min": [
        -0.9968829154968262,
        -0.9996833801269531,
        -0.37575942277908325
      ],
      "type": "VEC3"
    },
    {
      "bufferView": 1,
      "byteOffset": 1864,
      "componentType": 5126,
      "count": 104,
      "max": [
        1.0,
        1.0
      ],
      "min": [
        0.0,
        1.0
      ],
      "type": "VEC2"
    },
    {
      "bufferView": 0,
      "byteOffset": 2784,
      "componentType": 5125,
      "count": 336,
      "type": "SCALAR"
    },
    {
      "bufferView": 2,
      "byteOffset": 8088,
      "componentType": 5126,
      "count": 162,
      "max": [
        3.1696889400482178,
        0.9549040198326111,
        0.8699399828910828
      ],
      "min": [
        -1.0067930221557617,
        -0.980197012424469,
        -1.0000640153884888
      ],
      "type": "VEC3"
    },
    {
      "bufferView": 2,
      "byteOffset": 10032,
      "componentType": 5126,
      "count": 162,
      "max": [
        0.9833886027336121,
        0.9996364116668701,
        0.9999984502792358
      ],
      "min": [
        -0.9988633990287781,
        -0.9995202422142029,
        -0.9999998807907104
      ],
      "type": "VEC3"
    },
    {
      "bufferView": 1,
      "byteOffset": 2696,
      "componentType": 5126,
      "count": 162,
      "max": [
        1.0,
        1.0
      ],
      "min": [
        0.0,
        0.0
      ],
      "type": "VEC2"
    },
    {
      "bufferView": 0,
      "byteOffset": 4128,
      "componentType": 5125,
      "count": 672,
      "type": "SCALAR"
    }
  ],
  "asset": {
    "extras": {
      "author": "neutralize (https://sketchfab.com/neutralize)",
      "license": "CC-BY-4.0 (http://creativecommons.org/licenses/by/4.0/)",
      "source": "https://sketchfab.com/3d-models/cherry-c6efd7a599514ad28d61e826ae88ac89",
      "title": "Cherry"
    },
    "generator": "Sketchfab-12.66.0",
    "version": "2.0"
  },
  "bufferViews": [
    {
      "buffer": 0,
      "byteLength": 6816,
      "name": "floatBufferViews",
      "target": 34963
    },
    {
      "buffer": 0,
      "byteLength": 3992,
      "byteOffset": 6816,
      "byteStride": 8,
      "name": "floatBufferViews",
      "target": 34962
    },
    {
      "buffer": 0,
      "byteLength": 11976,
      "byteOffset": 10808,
      "byteStride": 12,
      "name": "floatBufferViews",
      "target": 34962
    }
  ],
  "buffers": [
    {
      "byteLength": 22784,
      "uri": "scene.bin"
    }
  ],
  "materials": [
    {
      "doubleSided": true,
      "name": "lambert10SG",
      "pbrMetallicRoughness": {
        "baseColorFactor": [
          0.13,
          0.38,
          0.03,
          1.0
        ],
        "metallicFactor": 0.0
      }
    },
    {
      "doubleSided": true,
      "name": "lambert11SG",
      "pbrMetallicRoughness": {
        "baseColorFactor": [
          0.08,
          0.02,
          0.0,
          1.0
        ],
        "metallicFactor": 0.0
      }
    },
    {
      "doubleSided": true,
      "name": "lambert9SG",
      "pbrMetallicRoughness": {
        "baseColorFactor": [
          0.14,
          0.0,
          0.0,
          1.0
        ],
        "metallicFactor": 0.0
      }
    }
  ],
  "meshes": [
    {
      "name": "Object_0",
      "primitives": [
        {
          "attributes": {
            "NORMAL": 1,
            "POSITION": 0,
            "TEXCOORD_0": 2
          },
          "indices": 3,
          "material": 0,
          "mode": 4
        }
      ]
    },
    {
      "name": "Object_1",
      "primitives": [
        {
          "attributes": {
            "NORMAL": 5,
            "POSITION": 4,
            "TEXCOORD_0": 6
          },
          "indices": 7,
          "material": 1,
          "mode": 4
        }
      ]
    },
    {
      "name": "Object_2",
      "primitives": [
        {
          "attributes": {
            "NORMAL": 9,
            "POSITION": 8,
            "TEXCOORD_0": 10
          },
          "indices": 11,
          "material": 2,
          "mode": 4
        }
      ]
    }
  ],
  "nodes": [
    {
      "children": [
        1
      ],
      "matrix": [
        1.0,
        0.0,
        0.0,
        0.0,
        0.0,
        2.220446049250313e-16,
        -1.0,
        0.0,
        0.0,
        1.0,
        2.220446049250313e-16,
        0.0,
        0.0,
        0.0,
        0.0,
        1.0
      ],
      "name": "Sketchfab_model"
    },
    {
      "children": [
        2,
        3,
        4
      ],
      "name": "cherry.obj.cleaner.materialmerger.gles"
    },
    {
      "mesh": 0,
      "name": "Object_2"
    },
    {
      "mesh": 1,
      "name": "Object_3"
    },
    {
      "mesh": 2,
      "name": "Object_4"
    }
  ],
  "scene": 0,
  "scenes": [
    {
      "name": "Sketchfab_Scene",
      "nodes": [
        0
      ]
    }
  ]
}
